<?xml version="1.0" encoding="utf-8"?>
<svg version="1.1" id="Camada_1" x="0px" y="0px" viewBox="0 209.922 1233.469 388.136" style="enable-background:new 0 0 850.8 870.3;" height="50px" width="100px" xmlns="http://www.w3.org/2000/svg" xmlns:bx="https://boxy-svg.com">
  <style type="text/css">
	.st0{fill:#4FA6CC;}
	.st1{fill:none;}
</style>
  <g transform="matrix(1, 0, 0, 1, -291.92215, 78.720589)">
    <path class="st0" d="M487,161.5c-95.2,0-172.4,74.7-172.4,165.9c0,100.9,80.4,167.3,169.9,167.9c83.7,0.5,172.6-65.1,174.8-167.9 C661.3,235.8,582.2,161.5,487,161.5z M571.5,216.2l-7.8,21.6c-3.3-1.8-6.9-3.2-10.5-4.5l1.9-10.1l-8.6-3.4l-0.4,11.5 c-4.1-0.9-8.3-1.5-12.6-1.7l-2.6-26.8C545.2,205.1,559,209.7,571.5,216.2z M509.5,201.1c1.4,0,2.9,0,4.3,0.1l7.4,28.9 c-4.5,0.5-8.8,1.4-13,2.7l-6.4-17.8l-11.6,2l9.9,18.9c-4.4,1.9-8.5,4.3-12.3,7L461,210.1C476,204.3,492.3,201.1,509.5,201.1z M443.8,218.2l36.6,30.6c-2.9,2.7-5.5,5.6-7.9,8.8l-28.5-16.9l-7.4,7.1l32.1,15.5c-2.3,3.8-4.2,7.9-5.7,12.1l-62.6-17.6 C411.5,241.6,426.3,228,443.8,218.2z M379.2,326.6c0-19.6,4.7-38.1,13-54.6l68.8,11.3c-0.9,4.2-1.3,8.6-1.3,13c0,0.5,0,0.9,0,1.4 l-46,4.2l0.3,7.9l45.9-7.1c0.5,4.8,1.5,9.5,3,14l-81.6,32.6C379.9,341.8,379.2,334.2,379.2,326.6z M386,366.9l79.3-44.2 c2.2,4.8,4.9,9.2,8.1,13.4l-37,35.3l7.1,6.9l34.1-37.4c3.9,4.1,8.3,7.7,13.1,10.8l-48.3,82.5C416.2,419,396,395.2,386,366.9z M509.5,452c-18.3,0-35.7-3.6-51.4-10.2l41.2-85.5c4.8,2.2,10,3.9,15.4,5.1c-1.9,8.4-10.2,44-10.2,44l10.6,1l4.9-44 c3.2,0.4,6.5,0.7,9.9,0.7c1.7,0,3.4-0.1,5-0.2l11.5,84.1C534.6,450.2,522.3,452,509.5,452z M563.2,440.9l-22.3-78.8 c4.2-0.6,8.3-1.6,12.3-3l18.7,29.5l10.2-6.1l-20.8-26.7c4.5-2.2,8.8-4.8,12.7-7.8L620,393C606.5,413.9,586.7,430.6,563.2,440.9z M639.8,326.6c0,18.5-4.1,36-11.6,51.8l-46.8-36.8c2.8-2.9,5.4-6,7.6-9.3l20.1,10.6l2.1-8.7l-18-9.1c1.7-3.4,3.1-7,4.2-10.7 l42.4,11.8C639.8,326.3,639.8,326.4,639.8,326.6z M638.8,310.9l-39.3-6.4c0.3-2.7,0.5-5.4,0.5-8.2c0-0.8,0-1.7-0.1-2.5l12.9-1.3 l-1.7-7.2l-12,0.8c-0.7-4.2-1.8-8.3-3.3-12.3l27.3-8.4C631.3,279.2,636.7,294.5,638.8,310.9z M592.2,265.6 c-2.2-3.9-4.7-7.7-7.6-11.1l7.5-4.7l-4.4-4.2l-6.9,4.7c-2.8-2.8-5.8-5.3-9.1-7.6l11.8-19.4c12.8,8.5,24,19.2,32.9,31.5L592.2,265.6 z" style="fill: rgb(255, 255, 255);"/>
  </g>
  <rect x="179.8" y="190" transform="matrix(-1 4.489952e-11 -4.489952e-11 -1 827.3702 1060.2885)" class="st1" width="467.7" height="680.3"/>
  <text style="fill: rgb(255, 255, 255); font-family: Constantia; font-size: 170px; white-space: pre;" x="411.642" y="383.915" bx:origin="0.436 0.511">ASLCorrêa</text>
  <rect x="401.803" y="412.828" width="793.766" height="20.774" style="stroke: rgb(0, 0, 0); fill: rgb(255, 255, 255);"/>
  <text style="fill: rgb(255, 255, 255); font-family: Constantia; font-size: 83px; white-space: pre;" x="431.323" y="519.975">Advocacia Tributária</text>
  <text style="white-space: pre; fill: rgb(51, 51, 51); font-family: Arial, sans-serif; font-size: 38.3px;" x="1701.786" y="553.869">Enter your text here</text>
  <text style="white-space: pre; fill: rgb(51, 51, 51); font-family: Arial, sans-serif; font-size: 38.3px;" x="395.243" y="83.732">Enter your text here</text>
</svg>